<svg xmlns="http://www.w3.org/2000/svg" version="1.1" xmlns:xlink="http://www.w3.org/1999/xlink" xmlns:svgjs="http://svgjs.dev/svgjs" width="1440" height="560" preserveAspectRatio="none" viewBox="0 0 1440 560"><g mask="url(&quot;#SvgjsMask1029&quot;)" fill="none"><path d="M18.48 224.27L83.43 261.77L83.43 336.77L18.48 374.27L-46.47 336.77L-46.47 261.77zM148.39 224.27L213.34 261.77L213.34 336.77L148.39 374.27L83.43 336.77L83.43 261.77zM213.34 336.77L278.3 374.27L278.3 449.27L213.34 486.77L148.39 449.27L148.39 374.27zM148.39 449.27L213.34 486.77L213.34 561.77L148.39 599.27L83.43 561.77L83.43 486.77zM213.34 561.77L278.3 599.27L278.3 674.27L213.34 711.77L148.39 674.27L148.39 599.27zM343.25 561.77L408.2 599.27L408.2 674.27L343.25 711.77L278.3 674.27L278.3 599.27zM408.2 -0.73L473.16 36.77L473.16 111.77L408.2 149.27L343.25 111.77L343.25 36.77zM473.16 111.77L538.11 149.27L538.11 224.27L473.16 261.77L408.2 224.27L408.2 149.27zM538.11 -0.73L603.06 36.77L603.06 111.77L538.11 149.27L473.16 111.77L473.16 36.77zM732.97 111.77L797.93 149.27L797.93 224.27L732.97 261.77L668.02 224.27L668.02 149.27zM797.92 224.27L862.88 261.77L862.88 336.77L797.92 374.27L732.97 336.77L732.97 261.77zM797.92 449.27L862.88 486.77L862.88 561.77L797.92 599.27L732.97 561.77L732.97 486.77zM927.83 224.27L992.79 261.77L992.79 336.77L927.83 374.27L862.88 336.77L862.88 261.77zM1252.6 336.77L1317.55 374.27L1317.55 449.27L1252.6 486.77L1187.65 449.27L1187.65 374.27zM1382.51 111.77L1447.46 149.27L1447.46 224.27L1382.51 261.77L1317.56 224.27L1317.56 149.27zM1447.46 224.27L1512.42 261.77L1512.42 336.77L1447.46 374.27L1382.51 336.77L1382.51 261.77zM1512.42 336.77L1577.37 374.27L1577.37 449.27L1512.42 486.77L1447.46 449.27L1447.46 374.27z" stroke="rgba(104, 104, 104, 1)" stroke-width="2"></path><path d="M10.98 224.27 a7.5 7.5 0 1 0 15 0 a7.5 7.5 0 1 0 -15 0zM75.93 261.77 a7.5 7.5 0 1 0 15 0 a7.5 7.5 0 1 0 -15 0zM75.93 336.77 a7.5 7.5 0 1 0 15 0 a7.5 7.5 0 1 0 -15 0zM10.98 374.27 a7.5 7.5 0 1 0 15 0 a7.5 7.5 0 1 0 -15 0zM-53.97 336.77 a7.5 7.5 0 1 0 15 0 a7.5 7.5 0 1 0 -15 0zM-53.97 261.77 a7.5 7.5 0 1 0 15 0 a7.5 7.5 0 1 0 -15 0zM140.89 224.27 a7.5 7.5 0 1 0 15 0 a7.5 7.5 0 1 0 -15 0zM205.84 261.77 a7.5 7.5 0 1 0 15 0 a7.5 7.5 0 1 0 -15 0zM205.84 336.77 a7.5 7.5 0 1 0 15 0 a7.5 7.5 0 1 0 -15 0zM140.89 374.27 a7.5 7.5 0 1 0 15 0 a7.5 7.5 0 1 0 -15 0zM270.8 374.27 a7.5 7.5 0 1 0 15 0 a7.5 7.5 0 1 0 -15 0zM270.8 449.27 a7.5 7.5 0 1 0 15 0 a7.5 7.5 0 1 0 -15 0zM205.84 486.77 a7.5 7.5 0 1 0 15 0 a7.5 7.5 0 1 0 -15 0zM140.89 449.27 a7.5 7.5 0 1 0 15 0 a7.5 7.5 0 1 0 -15 0zM205.84 561.77 a7.5 7.5 0 1 0 15 0 a7.5 7.5 0 1 0 -15 0zM140.89 599.27 a7.5 7.5 0 1 0 15 0 a7.5 7.5 0 1 0 -15 0zM75.93 561.77 a7.5 7.5 0 1 0 15 0 a7.5 7.5 0 1 0 -15 0zM75.93 486.77 a7.5 7.5 0 1 0 15 0 a7.5 7.5 0 1 0 -15 0zM270.8 599.27 a7.5 7.5 0 1 0 15 0 a7.5 7.5 0 1 0 -15 0zM270.8 674.27 a7.5 7.5 0 1 0 15 0 a7.5 7.5 0 1 0 -15 0zM205.84 711.77 a7.5 7.5 0 1 0 15 0 a7.5 7.5 0 1 0 -15 0zM140.89 674.27 a7.5 7.5 0 1 0 15 0 a7.5 7.5 0 1 0 -15 0zM335.75 561.77 a7.5 7.5 0 1 0 15 0 a7.5 7.5 0 1 0 -15 0zM400.7 599.27 a7.5 7.5 0 1 0 15 0 a7.5 7.5 0 1 0 -15 0zM400.7 674.27 a7.5 7.5 0 1 0 15 0 a7.5 7.5 0 1 0 -15 0zM335.75 711.77 a7.5 7.5 0 1 0 15 0 a7.5 7.5 0 1 0 -15 0zM400.7 -0.73 a7.5 7.5 0 1 0 15 0 a7.5 7.5 0 1 0 -15 0zM465.66 36.77 a7.5 7.5 0 1 0 15 0 a7.5 7.5 0 1 0 -15 0zM465.66 111.77 a7.5 7.5 0 1 0 15 0 a7.5 7.5 0 1 0 -15 0zM400.7 149.27 a7.5 7.5 0 1 0 15 0 a7.5 7.5 0 1 0 -15 0zM335.75 111.77 a7.5 7.5 0 1 0 15 0 a7.5 7.5 0 1 0 -15 0zM335.75 36.77 a7.5 7.5 0 1 0 15 0 a7.5 7.5 0 1 0 -15 0zM530.61 149.27 a7.5 7.5 0 1 0 15 0 a7.5 7.5 0 1 0 -15 0zM530.61 224.27 a7.5 7.5 0 1 0 15 0 a7.5 7.5 0 1 0 -15 0zM465.66 261.77 a7.5 7.5 0 1 0 15 0 a7.5 7.5 0 1 0 -15 0zM400.7 224.27 a7.5 7.5 0 1 0 15 0 a7.5 7.5 0 1 0 -15 0zM530.61 -0.73 a7.5 7.5 0 1 0 15 0 a7.5 7.5 0 1 0 -15 0zM595.56 36.77 a7.5 7.5 0 1 0 15 0 a7.5 7.5 0 1 0 -15 0zM595.56 111.77 a7.5 7.5 0 1 0 15 0 a7.5 7.5 0 1 0 -15 0zM725.47 111.77 a7.5 7.5 0 1 0 15 0 a7.5 7.5 0 1 0 -15 0zM790.43 149.27 a7.5 7.5 0 1 0 15 0 a7.5 7.5 0 1 0 -15 0zM790.43 224.27 a7.5 7.5 0 1 0 15 0 a7.5 7.5 0 1 0 -15 0zM725.47 261.77 a7.5 7.5 0 1 0 15 0 a7.5 7.5 0 1 0 -15 0zM660.52 224.27 a7.5 7.5 0 1 0 15 0 a7.5 7.5 0 1 0 -15 0zM660.52 149.27 a7.5 7.5 0 1 0 15 0 a7.5 7.5 0 1 0 -15 0zM790.42 224.27 a7.5 7.5 0 1 0 15 0 a7.5 7.5 0 1 0 -15 0zM855.38 261.77 a7.5 7.5 0 1 0 15 0 a7.5 7.5 0 1 0 -15 0zM855.38 336.77 a7.5 7.5 0 1 0 15 0 a7.5 7.5 0 1 0 -15 0zM790.42 374.27 a7.5 7.5 0 1 0 15 0 a7.5 7.5 0 1 0 -15 0zM725.47 336.77 a7.5 7.5 0 1 0 15 0 a7.5 7.5 0 1 0 -15 0zM790.42 449.27 a7.5 7.5 0 1 0 15 0 a7.5 7.5 0 1 0 -15 0zM855.38 486.77 a7.5 7.5 0 1 0 15 0 a7.5 7.5 0 1 0 -15 0zM855.38 561.77 a7.5 7.5 0 1 0 15 0 a7.5 7.5 0 1 0 -15 0zM790.42 599.27 a7.5 7.5 0 1 0 15 0 a7.5 7.5 0 1 0 -15 0zM725.47 561.77 a7.5 7.5 0 1 0 15 0 a7.5 7.5 0 1 0 -15 0zM725.47 486.77 a7.5 7.5 0 1 0 15 0 a7.5 7.5 0 1 0 -15 0zM920.33 224.27 a7.5 7.5 0 1 0 15 0 a7.5 7.5 0 1 0 -15 0zM985.29 261.77 a7.5 7.5 0 1 0 15 0 a7.5 7.5 0 1 0 -15 0zM985.29 336.77 a7.5 7.5 0 1 0 15 0 a7.5 7.5 0 1 0 -15 0zM920.33 374.27 a7.5 7.5 0 1 0 15 0 a7.5 7.5 0 1 0 -15 0zM1245.1 336.77 a7.5 7.5 0 1 0 15 0 a7.5 7.5 0 1 0 -15 0zM1310.05 374.27 a7.5 7.5 0 1 0 15 0 a7.5 7.5 0 1 0 -15 0zM1310.05 449.27 a7.5 7.5 0 1 0 15 0 a7.5 7.5 0 1 0 -15 0zM1245.1 486.77 a7.5 7.5 0 1 0 15 0 a7.5 7.5 0 1 0 -15 0zM1180.15 449.27 a7.5 7.5 0 1 0 15 0 a7.5 7.5 0 1 0 -15 0zM1180.15 374.27 a7.5 7.5 0 1 0 15 0 a7.5 7.5 0 1 0 -15 0zM1375.01 111.77 a7.5 7.5 0 1 0 15 0 a7.5 7.5 0 1 0 -15 0zM1439.96 149.27 a7.5 7.5 0 1 0 15 0 a7.5 7.5 0 1 0 -15 0zM1439.96 224.27 a7.5 7.5 0 1 0 15 0 a7.5 7.5 0 1 0 -15 0zM1375.01 261.77 a7.5 7.5 0 1 0 15 0 a7.5 7.5 0 1 0 -15 0zM1310.06 224.27 a7.5 7.5 0 1 0 15 0 a7.5 7.5 0 1 0 -15 0zM1310.06 149.27 a7.5 7.5 0 1 0 15 0 a7.5 7.5 0 1 0 -15 0zM1504.92 261.77 a7.5 7.5 0 1 0 15 0 a7.5 7.5 0 1 0 -15 0zM1504.92 336.77 a7.5 7.5 0 1 0 15 0 a7.5 7.5 0 1 0 -15 0zM1439.96 374.27 a7.5 7.5 0 1 0 15 0 a7.5 7.5 0 1 0 -15 0zM1375.01 336.77 a7.5 7.5 0 1 0 15 0 a7.5 7.5 0 1 0 -15 0zM1569.87 374.27 a7.5 7.5 0 1 0 15 0 a7.5 7.5 0 1 0 -15 0zM1569.87 449.27 a7.5 7.5 0 1 0 15 0 a7.5 7.5 0 1 0 -15 0zM1504.92 486.77 a7.5 7.5 0 1 0 15 0 a7.5 7.5 0 1 0 -15 0zM1439.96 449.27 a7.5 7.5 0 1 0 15 0 a7.5 7.5 0 1 0 -15 0z" fill="rgba(104, 104, 104, 1)"></path><path d="M63.17 50.65L106.48 75.65L106.48 125.65L63.17 150.65L19.87 125.65L19.87 75.65zM63.17 350.65L106.48 375.65L106.48 425.65L63.17 450.65L19.87 425.65L19.87 375.65zM149.78 350.65L193.08 375.65L193.08 425.65L149.78 450.65L106.48 425.65L106.48 375.65zM106.48 425.65L149.78 450.65L149.78 500.65L106.48 525.65L63.17 500.65L63.17 450.65zM193.08 -24.35L236.38 0.65L236.38 50.65L193.08 75.65L149.78 50.65L149.78 0.65zM236.38 50.65L279.69 75.65L279.69 125.65L236.38 150.65L193.08 125.65L193.08 75.65zM236.38 200.65L279.69 225.65L279.69 275.65L236.38 300.65L193.08 275.65L193.08 225.65zM236.38 500.65L279.69 525.65L279.69 575.65L236.38 600.65L193.08 575.65L193.08 525.65zM279.69 -24.35L322.99 0.65L322.99 50.65L279.69 75.65L236.38 50.65L236.38 0.65zM279.69 125.65L322.99 150.65L322.99 200.65L279.69 225.65L236.38 200.65L236.38 150.65zM366.29 275.65L409.59 300.65L409.59 350.65L366.29 375.65L322.99 350.65L322.99 300.65zM452.9 275.65L496.2 300.65L496.2 350.65L452.9 375.65L409.59 350.65L409.59 300.65zM539.5 -24.35L582.8 0.65L582.8 50.65L539.5 75.65L496.2 50.65L496.2 0.65zM582.8 200.65L626.11 225.65L626.11 275.65L582.8 300.65L539.5 275.65L539.5 225.65zM626.11 125.65L669.41 150.65L669.41 200.65L626.11 225.65L582.8 200.65L582.8 150.65zM669.41 200.65L712.71 225.65L712.71 275.65L669.41 300.65L626.11 275.65L626.11 225.65zM626.11 425.65L669.41 450.65L669.41 500.65L626.11 525.65L582.8 500.65L582.8 450.65zM712.71 -24.35L756.01 0.65L756.01 50.65L712.71 75.65L669.41 50.65L669.41 0.65zM756.01 50.65L799.32 75.65L799.32 125.65L756.01 150.65L712.71 125.65L712.71 75.65zM712.71 125.65L756.01 150.65L756.01 200.65L712.71 225.65L669.41 200.65L669.41 150.65zM799.32 125.65L842.62 150.65L842.62 200.65L799.32 225.65L756.01 200.65L756.01 150.65zM842.62 200.65L885.92 225.65L885.92 275.65L842.62 300.65L799.32 275.65L799.32 225.65zM799.32 275.65L842.62 300.65L842.62 350.65L799.32 375.65L756.01 350.65L756.01 300.65zM885.92 425.65L929.22 450.65L929.22 500.65L885.92 525.65L842.62 500.65L842.62 450.65zM972.53 125.65L1015.83 150.65L1015.83 200.65L972.53 225.65L929.22 200.65L929.22 150.65zM1059.13 125.65L1102.43 150.65L1102.43 200.65L1059.13 225.65L1015.83 200.65L1015.83 150.65zM1102.43 200.65L1145.73 225.65L1145.73 275.65L1102.43 300.65L1059.13 275.65L1059.13 225.65zM1102.43 500.65L1145.73 525.65L1145.73 575.65L1102.43 600.65L1059.13 575.65L1059.13 525.65zM1145.73 -24.35L1189.04 0.65L1189.04 50.65L1145.73 75.65L1102.43 50.65L1102.43 0.65zM1189.04 200.65L1232.34 225.65L1232.34 275.65L1189.04 300.65L1145.73 275.65L1145.73 225.65zM1145.73 275.65L1189.04 300.65L1189.04 350.65L1145.73 375.65L1102.43 350.65L1102.43 300.65zM1232.34 -24.35L1275.64 0.65L1275.64 50.65L1232.34 75.65L1189.04 50.65L1189.04 0.65zM1232.34 425.65L1275.64 450.65L1275.64 500.65L1232.34 525.65L1189.04 500.65L1189.04 450.65zM1318.94 -24.35L1362.25 0.65L1362.25 50.65L1318.94 75.65L1275.64 50.65L1275.64 0.65zM1318.94 275.65L1362.25 300.65L1362.25 350.65L1318.94 375.65L1275.64 350.65L1275.64 300.65zM1405.55 125.65L1448.85 150.65L1448.85 200.65L1405.55 225.65L1362.25 200.65L1362.25 150.65zM1448.85 200.65L1492.15 225.65L1492.15 275.65L1448.85 300.65L1405.55 275.65L1405.55 225.65zM1448.85 500.65L1492.15 525.65L1492.15 575.65L1448.85 600.65L1405.55 575.65L1405.55 525.65z" stroke="rgba(142, 142, 142, 1)" stroke-width="2"></path></g><defs><mask id="SvgjsMask1029"><rect width="1440" height="560" fill="#ffffff"></rect></mask></defs></svg>