<svg xmlns="http://www.w3.org/2000/svg" version="1.1" xmlns:xlink="http://www.w3.org/1999/xlink" xmlns:svgjs="http://svgjs.dev/svgjs" width="1440" height="560" preserveAspectRatio="none" viewBox="0 0 1440 560"><g mask="url(&quot;#SvgjsMask1029&quot;)" fill="none"><path d="M121 411L120 584" stroke-width="6" stroke="url(&quot;#SvgjsLinearGradient1030&quot;)" stroke-linecap="round" class="Down"></path><path d="M174 261L173 410" stroke-width="8" stroke="url(&quot;#SvgjsLinearGradient1031&quot;)" stroke-linecap="round" class="Up"></path><path d="M897 499L896 762" stroke-width="8" stroke="url(&quot;#SvgjsLinearGradient1030&quot;)" stroke-linecap="round" class="Down"></path><path d="M761 477L760 721" stroke-width="6" stroke="url(&quot;#SvgjsLinearGradient1030&quot;)" stroke-linecap="round" class="Down"></path><path d="M298 503L297 690" stroke-width="6" stroke="url(&quot;#SvgjsLinearGradient1030&quot;)" stroke-linecap="round" class="Down"></path><path d="M529 314L528 104" stroke-width="6" stroke="url(&quot;#SvgjsLinearGradient1031&quot;)" stroke-linecap="round" class="Up"></path><path d="M52 374L51 551" stroke-width="10" stroke="url(&quot;#SvgjsLinearGradient1031&quot;)" stroke-linecap="round" class="Up"></path><path d="M714 174L713 454" stroke-width="8" stroke="url(&quot;#SvgjsLinearGradient1030&quot;)" stroke-linecap="round" class="Down"></path><path d="M1410 39L1409 441" stroke-width="6" stroke="url(&quot;#SvgjsLinearGradient1030&quot;)" stroke-linecap="round" class="Down"></path><path d="M877 453L876 126" stroke-width="10" stroke="url(&quot;#SvgjsLinearGradient1030&quot;)" stroke-linecap="round" class="Down"></path><path d="M989 63L988 302" stroke-width="8" stroke="url(&quot;#SvgjsLinearGradient1031&quot;)" stroke-linecap="round" class="Up"></path><path d="M966 68L965 357" stroke-width="6" stroke="url(&quot;#SvgjsLinearGradient1031&quot;)" stroke-linecap="round" class="Up"></path><path d="M1175 29L1174 295" stroke-width="8" stroke="url(&quot;#SvgjsLinearGradient1031&quot;)" stroke-linecap="round" class="Up"></path><path d="M189 356L188 736" stroke-width="8" stroke="url(&quot;#SvgjsLinearGradient1031&quot;)" stroke-linecap="round" class="Up"></path><path d="M232 11L231 198" stroke-width="10" stroke="url(&quot;#SvgjsLinearGradient1031&quot;)" stroke-linecap="round" class="Up"></path><path d="M1425 250L1424 -54" stroke-width="10" stroke="url(&quot;#SvgjsLinearGradient1030&quot;)" stroke-linecap="round" class="Down"></path><path d="M1321 487L1320 651" stroke-width="10" stroke="url(&quot;#SvgjsLinearGradient1031&quot;)" stroke-linecap="round" class="Up"></path><path d="M44 385L43 155" stroke-width="8" stroke="url(&quot;#SvgjsLinearGradient1030&quot;)" stroke-linecap="round" class="Down"></path><path d="M1339 425L1338 781" stroke-width="10" stroke="url(&quot;#SvgjsLinearGradient1031&quot;)" stroke-linecap="round" class="Up"></path><path d="M834 266L833 -61" stroke-width="8" stroke="url(&quot;#SvgjsLinearGradient1031&quot;)" stroke-linecap="round" class="Up"></path><path d="M597 117L596 510" stroke-width="6" stroke="url(&quot;#SvgjsLinearGradient1031&quot;)" stroke-linecap="round" class="Up"></path><path d="M1435 513L1434 325" stroke-width="8" stroke="url(&quot;#SvgjsLinearGradient1031&quot;)" stroke-linecap="round" class="Up"></path><path d="M345 150L344 -28" stroke-width="10" stroke="url(&quot;#SvgjsLinearGradient1030&quot;)" stroke-linecap="round" class="Down"></path><path d="M614 538L613 155" stroke-width="10" stroke="url(&quot;#SvgjsLinearGradient1030&quot;)" stroke-linecap="round" class="Down"></path><path d="M685 446L684 36" stroke-width="10" stroke="url(&quot;#SvgjsLinearGradient1030&quot;)" stroke-linecap="round" class="Down"></path><path d="M197 65L196 -314" stroke-width="6" stroke="url(&quot;#SvgjsLinearGradient1031&quot;)" stroke-linecap="round" class="Up"></path><path d="M1359 526L1358 201" stroke-width="10" stroke="url(&quot;#SvgjsLinearGradient1030&quot;)" stroke-linecap="round" class="Down"></path><path d="M955 399L954 10" stroke-width="10" stroke="url(&quot;#SvgjsLinearGradient1031&quot;)" stroke-linecap="round" class="Up"></path><path d="M364 69L363 -188" stroke-width="6" stroke="url(&quot;#SvgjsLinearGradient1031&quot;)" stroke-linecap="round" class="Up"></path><path d="M738 347L737 536" stroke-width="6" stroke="url(&quot;#SvgjsLinearGradient1031&quot;)" stroke-linecap="round" class="Up"></path><path d="M1190 533L1189 690" stroke-width="8" stroke="url(&quot;#SvgjsLinearGradient1030&quot;)" stroke-linecap="round" class="Down"></path><path d="M499 127L498 -278" stroke-width="8" stroke="url(&quot;#SvgjsLinearGradient1031&quot;)" stroke-linecap="round" class="Up"></path><path d="M478 8L477 189" stroke-width="10" stroke="url(&quot;#SvgjsLinearGradient1030&quot;)" stroke-linecap="round" class="Down"></path><path d="M1389 388L1388 629" stroke-width="10" stroke="url(&quot;#SvgjsLinearGradient1031&quot;)" stroke-linecap="round" class="Up"></path><path d="M892 299L891 461" stroke-width="8" stroke="url(&quot;#SvgjsLinearGradient1030&quot;)" stroke-linecap="round" class="Down"></path><path d="M105 193L104 473" stroke-width="6" stroke="url(&quot;#SvgjsLinearGradient1030&quot;)" stroke-linecap="round" class="Down"></path></g><defs><mask id="SvgjsMask1029"><rect width="1440" height="560" fill="#ffffff"></rect></mask><linearGradient x1="0%" y1="0%" x2="0%" y2="100%" id="SvgjsLinearGradient1030"><stop stop-color="rgba(95, 95, 95, 0)" offset="0"></stop><stop stop-color="rgba(95, 95, 95, 1)" offset="1"></stop></linearGradient><linearGradient x1="0%" y1="100%" x2="0%" y2="0%" id="SvgjsLinearGradient1031"><stop stop-color="rgba(95, 95, 95, 0)" offset="0"></stop><stop stop-color="rgba(95, 95, 95, 1)" offset="1"></stop></linearGradient></defs></svg>